<svg xmlns="http://www.w3.org/2000/svg" xmlns:xlink="http://www.w3.org/1999/xlink" width="500" zoomAndPan="magnify" viewBox="0 0 375 374.999991" height="500" preserveAspectRatio="xMidYMid meet" version="1.0"><defs><g/><clipPath id="b0ebefc7d0"><path d="M 163.175781 163 L 280.171875 163 L 280.171875 187.15625 L 163.175781 187.15625 Z M 163.175781 163 " clip-rule="nonzero"/></clipPath><clipPath id="b05f858850"><path d="M 77.273438 176 L 150 176 L 150 194 L 77.273438 194 Z M 77.273438 176 " clip-rule="nonzero"/></clipPath><clipPath id="a3b3ab2610"><path d="M 80 144.125 L 297.773438 144.125 L 297.773438 186 L 80 186 Z M 80 144.125 " clip-rule="nonzero"/></clipPath><clipPath id="75b94acace"><path d="M 77.269531 208.4375 L 152 208.4375 L 152 223 L 77.269531 223 Z M 77.269531 208.4375 " clip-rule="nonzero"/></clipPath></defs><g clip-path="url(#b0ebefc7d0)"><path fill="#000000" d="M 163.332031 187.15625 C 166.761719 173.523438 182.957031 171.875 207.867188 174.171875 C 202.828125 172.066406 197.191406 172.109375 191.144531 171.453125 C 211.621094 161.300781 231.898438 167.851562 243.976562 176.9375 C 263.703125 174.847656 274.234375 179.089844 280.167969 186.507812 C 277.230469 177.785156 265.078125 173.761719 245.652344 173.425781 C 226.613281 161.273438 207.070312 160.90625 187.183594 168.625 C 181.617188 170.3125 176.214844 172.164062 168.921875 171.828125 C 169.175781 172.476562 169.566406 173.050781 170.179688 173.425781 C 164.453125 177.175781 163.179688 181.992188 163.332031 187.15625 Z M 163.332031 187.15625 " fill-opacity="1" fill-rule="evenodd"/></g><g clip-path="url(#b05f858850)"><path fill="#ffffff" d="M 149.734375 190.054688 C 123.582031 192.140625 105.730469 189.664062 95.289062 187.183594 C 97.652344 187.1875 100.019531 187.125 102.3125 187.003906 C 104.492188 186.890625 106.664062 186.734375 108.820312 186.539062 C 110.628906 186.378906 113.96875 186.046875 115.980469 185.785156 C 111.945312 185.128906 107.953125 184.304688 104.039062 183.40625 C 100.5625 182.605469 97.128906 181.722656 93.8125 180.6875 C 91.15625 179.863281 88.746094 178.773438 86.296875 177.742188 C 84.246094 176.878906 81.316406 175.386719 79.046875 176.6875 C 77.285156 177.699219 77.269531 179.773438 77.417969 181.148438 C 77.84375 185.035156 83.65625 187.332031 86.722656 188.726562 C 90.457031 190.429688 94.429688 191.582031 98.449219 192.375 C 106.722656 194.007812 115.253906 194.195312 123.648438 193.722656 C 130.355469 193.332031 137.007812 192.527344 143.617188 191.316406 C 145.605469 190.953125 147.671875 190.511719 149.734375 190.054688 Z M 149.734375 190.054688 " fill-opacity="1" fill-rule="nonzero"/></g><g clip-path="url(#a3b3ab2610)"><path fill="#ffffff" d="M 295.164062 170.457031 C 293.917969 169.882812 292.640625 169.34375 291.335938 168.839844 C 289.796875 168.238281 288.222656 167.683594 286.617188 167.171875 C 282.648438 165.921875 278.613281 164.9375 274.515625 164.214844 C 270.34375 163.488281 266.144531 162.972656 261.921875 162.667969 C 260.863281 162.59375 259.800781 162.511719 258.742188 162.464844 L 257.148438 162.378906 L 255.554688 162.320312 C 255.023438 162.300781 254.492188 162.28125 253.960938 162.265625 L 252.367188 162.238281 C 251.304688 162.210938 250.246094 162.214844 249.183594 162.207031 C 248.648438 162.199219 248.121094 162.203125 247.589844 162.207031 L 245.996094 162.21875 C 244.9375 162.230469 243.878906 162.253906 242.816406 162.273438 L 239.644531 162.371094 C 238.589844 162.414062 237.53125 162.453125 236.476562 162.5 C 234.367188 162.597656 232.261719 162.707031 230.160156 162.828125 C 229.109375 162.890625 228.058594 162.957031 227.011719 163.027344 L 223.867188 163.234375 C 215.488281 163.800781 207.140625 164.5 198.820312 165.203125 C 190.5 165.90625 182.203125 166.621094 173.914062 167.214844 C 169.773438 167.519531 165.632812 167.789062 161.496094 168.015625 C 157.359375 168.246094 153.222656 168.4375 149.09375 168.558594 C 144.960938 168.679688 140.835938 168.765625 136.71875 168.75 C 136.203125 168.75 135.6875 168.753906 135.171875 168.75 L 133.628906 168.730469 C 132.601562 168.71875 131.570312 168.71875 130.542969 168.6875 L 127.460938 168.613281 L 124.386719 168.5 C 121.144531 168.363281 117.914062 168.171875 114.691406 167.929688 C 115.761719 167.511719 116.816406 167.078125 117.855469 166.636719 C 123.296875 164.316406 128.363281 161.746094 133.402344 159.304688 C 138.441406 156.863281 143.460938 154.542969 148.710938 152.726562 C 149.371094 152.507812 150.027344 152.277344 150.691406 152.070312 C 151.023438 151.96875 151.351562 151.859375 151.6875 151.761719 L 152.695312 151.472656 C 153.367188 151.28125 154.035156 151.078125 154.722656 150.917969 L 155.746094 150.660156 C 156.089844 150.578125 156.429688 150.484375 156.777344 150.414062 L 158.855469 149.957031 L 160.957031 149.5625 C 161.132812 149.53125 161.308594 149.496094 161.484375 149.46875 L 162.015625 149.382812 L 163.082031 149.21875 C 163.4375 149.167969 163.789062 149.101562 164.148438 149.058594 L 165.222656 148.925781 L 166.296875 148.789062 C 166.65625 148.746094 167.015625 148.71875 167.375 148.679688 L 168.460938 148.578125 L 169 148.523438 L 169.546875 148.484375 C 170.269531 148.433594 170.996094 148.375 171.726562 148.332031 L 173.914062 148.230469 C 176.839844 148.128906 179.78125 148.15625 182.726562 148.277344 C 183.460938 148.316406 184.199219 148.339844 184.9375 148.386719 L 187.144531 148.539062 C 188.617188 148.667969 190.089844 148.792969 191.558594 148.964844 C 194.492188 149.296875 197.425781 149.699219 200.339844 150.199219 C 206.164062 151.199219 211.929688 152.484375 217.605469 154.007812 C 223.289062 155.511719 228.875 157.261719 234.417969 159.117188 C 231.828125 157.929688 229.195312 156.792969 226.515625 155.710938 C 223.84375 154.625 221.117188 153.605469 218.355469 152.636719 C 212.746094 150.664062 207.046875 149 201.253906 147.644531 C 195.289062 146.246094 189.257812 145.261719 183.15625 144.691406 C 180.070312 144.414062 176.957031 144.257812 173.820312 144.226562 C 170.6875 144.195312 167.539062 144.324219 164.40625 144.597656 L 163.234375 144.703125 C 162.839844 144.734375 162.453125 144.789062 162.0625 144.832031 L 160.890625 144.96875 L 160.304688 145.035156 C 160.109375 145.058594 159.914062 145.09375 159.722656 145.121094 L 157.390625 145.46875 L 155.078125 145.882812 C 154.691406 145.945312 154.308594 146.035156 153.925781 146.113281 L 152.78125 146.359375 C 152.015625 146.515625 151.265625 146.714844 150.507812 146.902344 L 149.378906 147.183594 C 149 147.28125 148.632812 147.390625 148.257812 147.492188 C 147.507812 147.695312 146.777344 147.921875 146.042969 148.144531 C 145.671875 148.253906 145.3125 148.375 144.949219 148.492188 C 144.585938 148.609375 144.222656 148.726562 143.863281 148.847656 C 143.152344 149.097656 142.425781 149.335938 141.726562 149.597656 L 140.667969 149.984375 L 139.621094 150.382812 C 138.917969 150.644531 138.234375 150.925781 137.546875 151.199219 C 134.804688 152.304688 132.140625 153.476562 129.527344 154.660156 L 121.777344 158.207031 C 119.214844 159.375 116.65625 160.492188 114.082031 161.542969 C 111.507812 162.589844 108.902344 163.535156 106.269531 164.363281 C 103.632812 165.183594 100.960938 165.851562 98.246094 166.363281 L 80.871094 169.628906 L 98.449219 172.265625 C 102.660156 172.898438 106.894531 173.414062 111.148438 173.816406 C 115.402344 174.21875 119.667969 174.480469 123.933594 174.667969 C 132.464844 175.019531 140.996094 174.976562 149.46875 174.640625 C 166.429688 173.984375 183.148438 172.257812 199.730469 170.414062 C 202.328125 170.125 204.925781 169.832031 207.523438 169.539062 C 203.910156 170.289062 200.3125 171.070312 196.730469 171.882812 L 184.355469 174.726562 C 180.242188 175.683594 176.121094 176.605469 172 177.492188 L 168.910156 178.152344 C 167.878906 178.371094 166.847656 178.582031 165.8125 178.789062 L 162.714844 179.410156 L 161.164062 179.714844 L 159.632812 180.003906 C 155.535156 180.730469 151.386719 181.253906 147.214844 181.605469 C 138.820312 182.277344 130.425781 182.324219 122.027344 181.75 C 113.582031 181.179688 105.207031 180.0625 96.910156 178.390625 C 104.984375 180.945312 113.34375 182.707031 121.804688 183.832031 C 130.320312 184.949219 138.867188 185.324219 147.445312 184.957031 C 151.75 184.765625 156.03125 184.351562 160.292969 183.71875 L 161.890625 183.464844 L 163.464844 183.199219 C 164.515625 183.027344 165.5625 182.839844 166.609375 182.644531 C 167.660156 182.460938 168.707031 182.265625 169.75 182.066406 L 172.882812 181.460938 C 177.058594 180.648438 181.210938 179.75 185.355469 178.84375 L 197.75 176.058594 C 201.871094 175.121094 205.988281 174.199219 210.109375 173.339844 C 214.230469 172.460938 218.359375 171.664062 222.496094 170.945312 C 226.636719 170.222656 230.789062 169.609375 234.957031 169.089844 L 238.085938 168.726562 L 241.222656 168.410156 L 244.359375 168.132812 L 247.503906 167.902344 L 250.652344 167.71875 L 253.804688 167.570312 C 255.917969 167.488281 258.027344 167.421875 260.136719 167.363281 C 264.355469 167.261719 268.566406 167.246094 272.773438 167.398438 C 279.011719 167.609375 285.25 168.238281 291.367188 169.546875 C 293.519531 170.183594 295.632812 170.898438 297.710938 171.695312 C 296.878906 171.265625 296.027344 170.855469 295.164062 170.457031 Z M 295.164062 170.457031 " fill-opacity="1" fill-rule="nonzero"/></g><path fill="#ffffff" d="M 244.039062 191.910156 C 244.570312 189.25 245.5625 186.773438 247.019531 184.480469 C 248.492188 182.140625 250.316406 180.117188 252.484375 178.40625 C 254.683594 176.671875 257.109375 175.355469 259.761719 174.449219 C 260.417969 174.226562 261.09375 174.054688 261.765625 173.859375 C 262.445312 173.707031 263.128906 173.578125 263.8125 173.4375 C 264.503906 173.347656 265.195312 173.273438 265.890625 173.195312 L 266.933594 173.136719 C 267.28125 173.121094 267.628906 173.125 267.980469 173.121094 C 269.378906 173.132812 270.765625 173.257812 272.144531 173.492188 C 273.519531 173.738281 274.867188 174.089844 276.183594 174.558594 C 278.824219 175.492188 281.234375 176.84375 283.40625 178.605469 C 285.558594 180.34375 287.355469 182.394531 288.796875 184.753906 C 290.21875 187.070312 291.175781 189.5625 291.664062 192.234375 C 291.117188 191.039062 290.496094 189.886719 289.808594 188.769531 C 289.128906 187.675781 288.375 186.632812 287.550781 185.640625 C 285.925781 183.683594 284.058594 181.992188 281.949219 180.570312 C 280.921875 179.875 279.851562 179.257812 278.730469 178.722656 C 277.613281 178.183594 276.460938 177.730469 275.277344 177.363281 C 274.09375 176.996094 272.886719 176.71875 271.660156 176.527344 C 270.433594 176.335938 269.203125 176.238281 267.960938 176.230469 C 266.71875 176.222656 265.484375 176.304688 264.257812 176.476562 C 263.027344 176.652344 261.820312 176.914062 260.628906 177.265625 C 259.441406 177.617188 258.28125 178.054688 257.15625 178.578125 C 256.03125 179.101562 254.953125 179.703125 253.914062 180.382812 C 251.789062 181.777344 249.898438 183.445312 248.246094 185.378906 C 246.554688 187.371094 245.152344 189.546875 244.039062 191.910156 Z M 244.039062 191.910156 " fill-opacity="1" fill-rule="nonzero"/><g clip-path="url(#75b94acace)"><path fill="#ffffff" d="M 77.304688 208.71875 C 100 219.542969 118.933594 221.097656 142.6875 212.339844 C 145.429688 211.371094 149.15625 209.824219 151.878906 208.71875 C 150.570312 209.746094 149.226562 210.726562 147.839844 211.644531 C 125.75 226.433594 97.863281 226.0625 77.304688 208.71875 Z M 77.304688 208.71875 " fill-opacity="1" fill-rule="nonzero"/></g><g fill="#ffffff" fill-opacity="1"><g transform="translate(161.760051, 215.060611)"><g><path d="M 8.25 -19.53125 C 9.351562 -19.53125 10.375 -19.257812 11.3125 -18.71875 C 12.257812 -18.1875 12.734375 -17.660156 12.734375 -17.140625 C 12.734375 -16.628906 12.519531 -16.375 12.09375 -16.375 C 11.832031 -16.375 11.367188 -16.664062 10.703125 -17.25 C 10.453125 -17.476562 10.085938 -17.679688 9.609375 -17.859375 C 9.128906 -18.035156 8.597656 -18.125 8.015625 -18.125 C 6.910156 -18.125 6.019531 -17.820312 5.34375 -17.21875 C 4.664062 -16.613281 4.328125 -15.796875 4.328125 -14.765625 C 4.328125 -13.640625 5.191406 -12.445312 6.921875 -11.1875 C 7.640625 -10.65625 8.359375 -10.101562 9.078125 -9.53125 C 9.796875 -8.96875 10.40625 -8.296875 10.90625 -7.515625 C 11.414062 -6.742188 11.671875 -5.921875 11.671875 -5.046875 C 11.671875 -3.378906 11.128906 -2.066406 10.046875 -1.109375 C 8.960938 -0.160156 7.566406 0.3125 5.859375 0.3125 C 4.160156 0.3125 2.773438 -0.148438 1.703125 -1.078125 C 1.347656 -1.378906 1.035156 -1.75 0.765625 -2.1875 C 0.503906 -2.625 0.375 -3 0.375 -3.3125 C 0.375 -3.925781 0.613281 -4.234375 1.09375 -4.234375 C 1.257812 -4.234375 1.398438 -4.175781 1.515625 -4.0625 C 1.628906 -3.957031 1.753906 -3.753906 1.890625 -3.453125 C 2.035156 -3.148438 2.144531 -2.941406 2.21875 -2.828125 C 3.007812 -1.691406 4.175781 -1.125 5.71875 -1.125 C 6.9375 -1.125 7.929688 -1.476562 8.703125 -2.1875 C 9.484375 -2.894531 9.875 -3.816406 9.875 -4.953125 C 9.875 -6.128906 9.007812 -7.367188 7.28125 -8.671875 C 6.5625 -9.210938 5.835938 -9.765625 5.109375 -10.328125 C 4.390625 -10.898438 3.773438 -11.5625 3.265625 -12.3125 C 2.765625 -13.0625 2.515625 -13.863281 2.515625 -14.71875 C 2.515625 -16.238281 3.054688 -17.421875 4.140625 -18.265625 C 5.222656 -19.109375 6.59375 -19.53125 8.25 -19.53125 Z M 8.25 -19.53125 "/></g></g></g><g fill="#ffffff" fill-opacity="1"><g transform="translate(175.107158, 215.060611)"><g><path d="M 2.890625 -18.953125 C 2.960938 -19.335938 3.257812 -19.53125 3.78125 -19.53125 C 4.3125 -19.53125 4.578125 -19.335938 4.578125 -18.953125 L 3.15625 -7.21875 C 3.050781 -6.320312 3 -5.617188 3 -5.109375 C 3 -3.804688 3.289062 -2.820312 3.875 -2.15625 C 4.46875 -1.5 5.5 -1.171875 6.96875 -1.171875 C 7.925781 -1.171875 8.710938 -1.300781 9.328125 -1.5625 C 9.953125 -1.832031 10.4375 -2.265625 10.78125 -2.859375 C 11.132812 -3.460938 11.390625 -4.078125 11.546875 -4.703125 C 11.703125 -5.328125 11.847656 -6.164062 11.984375 -7.21875 L 13.421875 -18.953125 C 13.492188 -19.335938 13.796875 -19.53125 14.328125 -19.53125 C 14.859375 -19.53125 15.125 -19.335938 15.125 -18.953125 L 13.71875 -7.21875 C 13.550781 -5.914062 13.335938 -4.835938 13.078125 -3.984375 C 12.828125 -3.140625 12.457031 -2.375 11.96875 -1.6875 C 11 -0.351562 9.265625 0.3125 6.765625 0.3125 C 4.765625 0.3125 3.34375 -0.132812 2.5 -1.03125 C 1.664062 -1.9375 1.25 -3.273438 1.25 -5.046875 C 1.25 -5.578125 1.300781 -6.300781 1.40625 -7.21875 Z M 2.890625 -18.953125 "/></g></g></g><g fill="#ffffff" fill-opacity="1"><g transform="translate(191.701468, 215.060611)"><g><path d="M 3 -0.40625 C 2.9375 0.0703125 2.632812 0.3125 2.09375 0.3125 C 1.550781 0.3125 1.28125 0.125 1.28125 -0.25 C 1.28125 -0.28125 2.035156 -6.421875 3.546875 -18.671875 C 3.585938 -18.960938 3.8125 -19.140625 4.21875 -19.203125 C 6.226562 -19.421875 7.640625 -19.53125 8.453125 -19.53125 C 10.253906 -19.53125 11.6875 -19.113281 12.75 -18.28125 C 13.8125 -17.445312 14.34375 -16.238281 14.34375 -14.65625 C 14.34375 -13.53125 14.078125 -12.539062 13.546875 -11.6875 C 13.015625 -10.84375 12.289062 -10.171875 11.375 -9.671875 C 9.582031 -8.703125 7.394531 -8.21875 4.8125 -8.21875 C 4.425781 -8.21875 4.132812 -8.226562 3.9375 -8.25 Z M 12.53125 -14.65625 C 12.53125 -15.789062 12.164062 -16.648438 11.4375 -17.234375 C 10.71875 -17.828125 9.773438 -18.125 8.609375 -18.125 C 7.441406 -18.125 6.289062 -18.050781 5.15625 -17.90625 L 4.171875 -9.796875 C 9.742188 -9.796875 12.53125 -11.414062 12.53125 -14.65625 Z M 12.53125 -14.65625 "/></g></g></g><g fill="#ffffff" fill-opacity="1"><g transform="translate(206.123505, 215.060611)"><g><path d="M 4.0625 -19.265625 L 12.703125 -19.265625 C 13.171875 -19.265625 13.40625 -19.066406 13.40625 -18.671875 C 13.40625 -18.367188 13.34375 -18.15625 13.21875 -18.03125 C 13.101562 -17.914062 12.882812 -17.859375 12.5625 -17.859375 L 5.046875 -17.859375 L 4.296875 -10.84375 L 10.515625 -10.84375 C 11.035156 -10.84375 11.296875 -10.648438 11.296875 -10.265625 C 11.296875 -9.960938 11.226562 -9.75 11.09375 -9.625 C 10.96875 -9.5 10.75 -9.4375 10.4375 -9.4375 L 4.09375 -9.4375 L 3.109375 -1.4375 L 11.109375 -1.4375 C 11.503906 -1.4375 11.703125 -1.210938 11.703125 -0.765625 C 11.703125 -0.535156 11.640625 -0.347656 11.515625 -0.203125 C 11.398438 -0.0664062 11.25 0 11.0625 0 L 2.015625 0 C 1.523438 0 1.28125 -0.191406 1.28125 -0.578125 C 1.28125 -0.671875 1.285156 -0.785156 1.296875 -0.921875 L 3.421875 -18.5 C 3.472656 -19.007812 3.6875 -19.265625 4.0625 -19.265625 Z M 4.0625 -19.265625 "/></g></g></g><g fill="#ffffff" fill-opacity="1"><g transform="translate(219.515403, 215.060611)"><g><path d="M 2.109375 0.3125 C 1.554688 0.3125 1.28125 0.125 1.28125 -0.25 L 1.28125 -0.34375 L 3.546875 -18.6875 C 3.585938 -18.988281 3.785156 -19.160156 4.140625 -19.203125 C 5.242188 -19.421875 6.695312 -19.53125 8.5 -19.53125 C 10.3125 -19.53125 11.738281 -19.164062 12.78125 -18.4375 C 13.832031 -17.707031 14.359375 -16.625 14.359375 -15.1875 C 14.359375 -13.976562 13.929688 -12.925781 13.078125 -12.03125 C 12.234375 -11.132812 11.070312 -10.546875 9.59375 -10.265625 C 10.570312 -9.847656 11.332031 -9.039062 11.875 -7.84375 C 12.125 -7.25 12.363281 -6.585938 12.59375 -5.859375 C 12.832031 -5.128906 12.984375 -4.6875 13.046875 -4.53125 L 14.421875 -0.46875 C 14.441406 -0.425781 14.453125 -0.335938 14.453125 -0.203125 C 14.453125 -0.078125 14.363281 0.0351562 14.1875 0.140625 C 14.019531 0.253906 13.8125 0.3125 13.5625 0.3125 C 13.09375 0.3125 12.804688 0.148438 12.703125 -0.171875 L 11.140625 -4.796875 C 10.734375 -5.992188 10.367188 -6.929688 10.046875 -7.609375 C 9.722656 -8.285156 9.34375 -8.765625 8.90625 -9.046875 C 8.46875 -9.335938 7.71875 -9.484375 6.65625 -9.484375 L 4.09375 -9.484375 L 2.984375 -0.296875 C 2.953125 -0.0664062 2.867188 0.0859375 2.734375 0.171875 C 2.597656 0.265625 2.390625 0.3125 2.109375 0.3125 Z M 6.921875 -10.953125 C 8.117188 -10.953125 9.316406 -11.265625 10.515625 -11.890625 C 11.109375 -12.210938 11.59375 -12.65625 11.96875 -13.21875 C 12.351562 -13.789062 12.546875 -14.429688 12.546875 -15.140625 C 12.546875 -16.085938 12.148438 -16.828125 11.359375 -17.359375 C 10.578125 -17.898438 9.597656 -18.171875 8.421875 -18.171875 C 7.242188 -18.171875 6.15625 -18.082031 5.15625 -17.90625 L 4.296875 -10.953125 Z M 6.921875 -10.953125 "/></g></g></g><g fill="#ffc727" fill-opacity="1"><g transform="translate(246.138005, 216.027115)"><g><path d="M 9 0.265625 C 7.570312 0.265625 6.3125 -0.00390625 5.21875 -0.546875 C 4.125 -1.097656 3.269531 -1.910156 2.65625 -2.984375 C 2.039062 -4.066406 1.734375 -5.382812 1.734375 -6.9375 C 1.734375 -7.832031 1.835938 -8.789062 2.046875 -9.8125 C 2.484375 -11.84375 3.203125 -13.554688 4.203125 -14.953125 C 5.203125 -16.347656 6.4375 -17.394531 7.90625 -18.09375 C 9.375 -18.800781 11.03125 -19.15625 12.875 -19.15625 C 14.632812 -19.15625 16.0625 -18.785156 17.15625 -18.046875 C 18.257812 -17.316406 18.976562 -16.25 19.3125 -14.84375 L 16.375 -13.265625 L 16.0625 -13.28125 C 15.78125 -14.1875 15.332031 -14.851562 14.71875 -15.28125 C 14.101562 -15.71875 13.257812 -15.9375 12.1875 -15.9375 C 10.625 -15.9375 9.289062 -15.421875 8.1875 -14.390625 C 7.09375 -13.367188 6.316406 -11.769531 5.859375 -9.59375 C 5.648438 -8.632812 5.546875 -7.785156 5.546875 -7.046875 C 5.546875 -5.628906 5.882812 -4.59375 6.5625 -3.9375 C 7.25 -3.28125 8.203125 -2.953125 9.421875 -2.953125 C 10.460938 -2.953125 11.398438 -3.242188 12.234375 -3.828125 C 13.066406 -4.421875 13.8125 -5.328125 14.46875 -6.546875 L 14.796875 -6.546875 L 17.46875 -5.109375 C 16.925781 -3.816406 16.265625 -2.78125 15.484375 -2 C 14.710938 -1.21875 13.796875 -0.644531 12.734375 -0.28125 C 11.679688 0.0820312 10.4375 0.265625 9 0.265625 Z M 9 0.265625 "/></g></g></g><g fill="#ffc727" fill-opacity="1"><g transform="translate(264.657623, 216.027115)"><g><path d="M 16.609375 0 L 12.796875 0 L 12.296875 -4.359375 L 5.109375 -4.359375 L 2.796875 0 L -1.234375 0 L 9.25 -18.890625 L 14.046875 -18.890625 Z M 10.765625 -14.9375 L 6.796875 -7.484375 L 11.9375 -7.484375 L 11.078125 -14.9375 Z M 10.765625 -14.9375 "/></g></g></g><g fill="#ffc727" fill-opacity="1"><g transform="translate(283.061014, 216.027115)"><g><path d="M 0.9375 0 L 4.953125 -18.890625 L 12.140625 -18.890625 C 13.242188 -18.890625 14.191406 -18.71875 14.984375 -18.375 C 15.773438 -18.039062 16.375 -17.554688 16.78125 -16.921875 C 17.195312 -16.296875 17.40625 -15.539062 17.40625 -14.65625 C 17.40625 -14.238281 17.351562 -13.785156 17.25 -13.296875 C 17.03125 -12.222656 16.523438 -11.320312 15.734375 -10.59375 C 14.953125 -9.875 14 -9.4375 12.875 -9.28125 L 12.8125 -9 C 13.375 -8.738281 13.789062 -8.351562 14.0625 -7.84375 C 14.332031 -7.34375 14.523438 -6.601562 14.640625 -5.625 L 14.859375 -3.6875 L 15.328125 0 L 11.578125 0 L 11.515625 -0.53125 C 11.441406 -1.09375 11.351562 -1.800781 11.25 -2.65625 C 11.15625 -3.507812 11.046875 -4.503906 10.921875 -5.640625 C 10.859375 -6.210938 10.738281 -6.65625 10.5625 -6.96875 C 10.394531 -7.28125 10.140625 -7.503906 9.796875 -7.640625 C 9.460938 -7.785156 9.003906 -7.859375 8.421875 -7.859375 L 6.34375 -7.859375 L 4.671875 0 Z M 10.375 -10.828125 C 11.320312 -10.828125 12.050781 -11.023438 12.5625 -11.421875 C 13.082031 -11.828125 13.425781 -12.4375 13.59375 -13.25 C 13.65625 -13.519531 13.6875 -13.78125 13.6875 -14.03125 C 13.6875 -14.664062 13.484375 -15.140625 13.078125 -15.453125 C 12.679688 -15.765625 12.113281 -15.921875 11.375 -15.921875 L 8.0625 -15.921875 L 6.96875 -10.828125 Z M 10.375 -10.828125 "/></g></g></g><g fill="#ffffff" fill-opacity="1"><g transform="translate(157.924021, 229.048917)"><g><path d="M 2.875 0.078125 C 2.195312 0.078125 1.679688 -0.09375 1.328125 -0.4375 C 0.972656 -0.789062 0.796875 -1.304688 0.796875 -1.984375 L 0.796875 -5.59375 L 1.453125 -5.59375 L 1.453125 -2 C 1.453125 -1.507812 1.566406 -1.140625 1.796875 -0.890625 C 2.035156 -0.648438 2.394531 -0.53125 2.875 -0.53125 C 3.832031 -0.53125 4.3125 -1.019531 4.3125 -2 L 4.3125 -5.59375 L 4.96875 -5.59375 L 4.96875 -1.984375 C 4.96875 -1.304688 4.789062 -0.789062 4.4375 -0.4375 C 4.082031 -0.09375 3.5625 0.078125 2.875 0.078125 Z M 2.875 0.078125 "/></g></g></g><g fill="#ffffff" fill-opacity="1"><g transform="translate(166.515027, 229.048917)"><g><path d="M 1.484375 0 L 0.84375 0 L 0.84375 -5.59375 L 1.65625 -5.59375 L 4.375 -1.3125 L 4.46875 -1.328125 L 4.46875 -5.59375 L 5.109375 -5.59375 L 5.109375 0 L 4.421875 0 L 1.578125 -4.5625 L 1.484375 -4.546875 Z M 1.484375 0 "/></g></g></g><g fill="#ffffff" fill-opacity="1"><g transform="translate(175.304724, 229.048917)"><g><path d="M 1.5 -5.59375 L 1.5 -0.546875 L 4.1875 -0.546875 L 4.1875 0 L 0.84375 0 L 0.84375 -5.59375 Z M 1.5 -5.59375 "/></g></g></g><g fill="#ffffff" fill-opacity="1"><g transform="translate(182.566027, 229.048917)"><g><path d="M 1.5 -2.640625 L 1.5 -0.546875 L 4.34375 -0.546875 L 4.34375 0 L 0.84375 0 L 0.84375 -5.59375 L 4.28125 -5.59375 L 4.28125 -5.046875 L 1.5 -5.046875 L 1.5 -3.171875 L 3.953125 -3.171875 L 3.953125 -2.640625 Z M 1.5 -2.640625 "/></g></g></g><g fill="#ffffff" fill-opacity="1"><g transform="translate(190.117727, 229.048917)"><g><path d="M 5.03125 0 L 4.328125 0 L 3.8125 -1.53125 L 1.421875 -1.53125 L 0.90625 0 L 0.21875 0 L 2.171875 -5.59375 L 3.078125 -5.59375 Z M 2.578125 -4.90625 L 1.609375 -2.078125 L 3.625 -2.078125 L 2.671875 -4.90625 Z M 2.578125 -4.90625 "/></g></g></g><g fill="#ffffff" fill-opacity="1"><g transform="translate(198.200543, 229.048917)"><g><path d="M 2.4375 0.078125 C 2.09375 0.078125 1.78125 0.03125 1.5 -0.0625 C 1.21875 -0.15625 0.984375 -0.28125 0.796875 -0.4375 C 0.609375 -0.59375 0.46875 -0.765625 0.375 -0.953125 L 0.734375 -1.390625 L 0.84375 -1.390625 C 1.1875 -0.804688 1.71875 -0.515625 2.4375 -0.515625 C 2.863281 -0.515625 3.175781 -0.601562 3.375 -0.78125 C 3.582031 -0.957031 3.6875 -1.203125 3.6875 -1.515625 C 3.6875 -1.691406 3.648438 -1.84375 3.578125 -1.96875 C 3.515625 -2.101562 3.40625 -2.210938 3.25 -2.296875 C 3.09375 -2.390625 2.882812 -2.46875 2.625 -2.53125 L 1.96875 -2.703125 C 1.476562 -2.816406 1.117188 -3 0.890625 -3.25 C 0.660156 -3.507812 0.546875 -3.835938 0.546875 -4.234375 C 0.546875 -4.503906 0.613281 -4.75 0.75 -4.96875 C 0.894531 -5.1875 1.101562 -5.359375 1.375 -5.484375 C 1.65625 -5.609375 1.988281 -5.671875 2.375 -5.671875 C 2.789062 -5.671875 3.144531 -5.609375 3.4375 -5.484375 C 3.726562 -5.367188 3.957031 -5.191406 4.125 -4.953125 L 3.8125 -4.53125 L 3.71875 -4.53125 C 3.550781 -4.71875 3.359375 -4.859375 3.140625 -4.953125 C 2.921875 -5.046875 2.664062 -5.09375 2.375 -5.09375 C 1.976562 -5.09375 1.679688 -5.015625 1.484375 -4.859375 C 1.296875 -4.710938 1.203125 -4.507812 1.203125 -4.25 C 1.203125 -4 1.269531 -3.796875 1.40625 -3.640625 C 1.550781 -3.492188 1.796875 -3.378906 2.140625 -3.296875 L 2.8125 -3.140625 C 3.351562 -3.015625 3.742188 -2.816406 3.984375 -2.546875 C 4.234375 -2.285156 4.359375 -1.953125 4.359375 -1.546875 C 4.359375 -1.222656 4.285156 -0.941406 4.140625 -0.703125 C 4.003906 -0.460938 3.789062 -0.269531 3.5 -0.125 C 3.21875 0.0078125 2.863281 0.078125 2.4375 0.078125 Z M 2.4375 0.078125 "/></g></g></g><g fill="#ffffff" fill-opacity="1"><g transform="translate(205.821021, 229.048917)"><g><path d="M 4.40625 -3.328125 L 4.40625 -5.59375 L 5.0625 -5.59375 L 5.0625 0 L 4.40625 0 L 4.40625 -2.765625 L 1.5 -2.765625 L 1.5 0 L 0.84375 0 L 0.84375 -5.59375 L 1.5 -5.59375 L 1.5 -3.328125 Z M 4.40625 -3.328125 "/></g></g></g><g fill="#ffffff" fill-opacity="1"><g transform="translate(214.561046, 229.048917)"><g/></g></g><g fill="#ffffff" fill-opacity="1"><g transform="translate(219.311966, 229.048917)"><g><path d="M 2.734375 0 L 2.078125 0 L 2.078125 -2.1875 L 0.140625 -5.59375 L 0.859375 -5.59375 L 2.375 -2.96875 L 2.46875 -2.96875 L 3.953125 -5.59375 L 4.65625 -5.59375 L 2.734375 -2.1875 Z M 2.734375 0 "/></g></g></g><g fill="#ffffff" fill-opacity="1"><g transform="translate(226.947727, 229.048917)"><g><path d="M 3.0625 0.078125 C 2.582031 0.078125 2.148438 -0.0234375 1.765625 -0.234375 C 1.390625 -0.441406 1.09375 -0.757812 0.875 -1.1875 C 0.664062 -1.613281 0.5625 -2.148438 0.5625 -2.796875 C 0.5625 -3.429688 0.664062 -3.960938 0.875 -4.390625 C 1.09375 -4.828125 1.390625 -5.148438 1.765625 -5.359375 C 2.148438 -5.566406 2.582031 -5.671875 3.0625 -5.671875 C 3.550781 -5.671875 3.984375 -5.566406 4.359375 -5.359375 C 4.734375 -5.148438 5.03125 -4.828125 5.25 -4.390625 C 5.46875 -3.960938 5.578125 -3.429688 5.578125 -2.796875 C 5.578125 -2.148438 5.46875 -1.613281 5.25 -1.1875 C 5.03125 -0.757812 4.734375 -0.441406 4.359375 -0.234375 C 3.984375 -0.0234375 3.550781 0.078125 3.0625 0.078125 Z M 3.0625 -0.53125 C 3.644531 -0.53125 4.09375 -0.707031 4.40625 -1.0625 C 4.71875 -1.425781 4.875 -2.003906 4.875 -2.796875 C 4.875 -3.578125 4.71875 -4.148438 4.40625 -4.515625 C 4.09375 -4.878906 3.644531 -5.0625 3.0625 -5.0625 C 1.863281 -5.0625 1.265625 -4.304688 1.265625 -2.796875 C 1.265625 -1.285156 1.863281 -0.53125 3.0625 -0.53125 Z M 3.0625 -0.53125 "/></g></g></g><g fill="#ffffff" fill-opacity="1"><g transform="translate(235.90937, 229.048917)"><g><path d="M 2.875 0.078125 C 2.195312 0.078125 1.679688 -0.09375 1.328125 -0.4375 C 0.972656 -0.789062 0.796875 -1.304688 0.796875 -1.984375 L 0.796875 -5.59375 L 1.453125 -5.59375 L 1.453125 -2 C 1.453125 -1.507812 1.566406 -1.140625 1.796875 -0.890625 C 2.035156 -0.648438 2.394531 -0.53125 2.875 -0.53125 C 3.832031 -0.53125 4.3125 -1.019531 4.3125 -2 L 4.3125 -5.59375 L 4.96875 -5.59375 L 4.96875 -1.984375 C 4.96875 -1.304688 4.789062 -0.789062 4.4375 -0.4375 C 4.082031 -0.09375 3.5625 0.078125 2.875 0.078125 Z M 2.875 0.078125 "/></g></g></g><g fill="#ffffff" fill-opacity="1"><g transform="translate(244.500377, 229.048917)"><g><path d="M 0.84375 0 L 0.84375 -5.59375 L 2.875 -5.59375 C 3.25 -5.59375 3.5625 -5.53125 3.8125 -5.40625 C 4.070312 -5.28125 4.265625 -5.101562 4.390625 -4.875 C 4.515625 -4.65625 4.578125 -4.390625 4.578125 -4.078125 C 4.578125 -3.734375 4.488281 -3.445312 4.3125 -3.21875 C 4.144531 -2.988281 3.878906 -2.820312 3.515625 -2.71875 L 3.515625 -2.640625 C 3.691406 -2.566406 3.835938 -2.453125 3.953125 -2.296875 C 4.066406 -2.140625 4.171875 -1.910156 4.265625 -1.609375 L 4.796875 0 L 4.109375 0 L 3.5625 -1.703125 C 3.488281 -1.910156 3.410156 -2.070312 3.328125 -2.1875 C 3.242188 -2.300781 3.132812 -2.378906 3 -2.421875 C 2.863281 -2.472656 2.691406 -2.5 2.484375 -2.5 L 1.5 -2.5 L 1.5 0 Z M 2.859375 -3.0625 C 3.203125 -3.0625 3.457031 -3.140625 3.625 -3.296875 C 3.800781 -3.460938 3.890625 -3.710938 3.890625 -4.046875 C 3.890625 -4.378906 3.800781 -4.625 3.625 -4.78125 C 3.457031 -4.945312 3.203125 -5.03125 2.859375 -5.03125 L 1.5 -5.03125 L 1.5 -3.0625 Z M 2.859375 -3.0625 "/></g></g></g><g fill="#ffffff" fill-opacity="1"><g transform="translate(252.506769, 229.048917)"><g/></g></g><g fill="#ffffff" fill-opacity="1"><g transform="translate(257.257683, 229.048917)"><g><path d="M 2.65625 -5.59375 C 3.21875 -5.59375 3.703125 -5.488281 4.109375 -5.28125 C 4.515625 -5.082031 4.828125 -4.773438 5.046875 -4.359375 C 5.265625 -3.941406 5.375 -3.421875 5.375 -2.796875 C 5.375 -2.171875 5.265625 -1.648438 5.046875 -1.234375 C 4.828125 -0.816406 4.515625 -0.503906 4.109375 -0.296875 C 3.703125 -0.0976562 3.21875 0 2.65625 0 L 0.84375 0 L 0.84375 -5.59375 Z M 2.59375 -0.5625 C 3.050781 -0.5625 3.429688 -0.632812 3.734375 -0.78125 C 4.046875 -0.925781 4.28125 -1.160156 4.4375 -1.484375 C 4.59375 -1.816406 4.671875 -2.253906 4.671875 -2.796875 C 4.671875 -3.335938 4.59375 -3.769531 4.4375 -4.09375 C 4.28125 -4.425781 4.046875 -4.664062 3.734375 -4.8125 C 3.429688 -4.957031 3.050781 -5.03125 2.59375 -5.03125 L 1.5 -5.03125 L 1.5 -0.5625 Z M 2.59375 -0.5625 "/></g></g></g><g fill="#ffffff" fill-opacity="1"><g transform="translate(266.028272, 229.048917)"><g><path d="M 0.84375 0 L 0.84375 -5.59375 L 2.875 -5.59375 C 3.25 -5.59375 3.5625 -5.53125 3.8125 -5.40625 C 4.070312 -5.28125 4.265625 -5.101562 4.390625 -4.875 C 4.515625 -4.65625 4.578125 -4.390625 4.578125 -4.078125 C 4.578125 -3.734375 4.488281 -3.445312 4.3125 -3.21875 C 4.144531 -2.988281 3.878906 -2.820312 3.515625 -2.71875 L 3.515625 -2.640625 C 3.691406 -2.566406 3.835938 -2.453125 3.953125 -2.296875 C 4.066406 -2.140625 4.171875 -1.910156 4.265625 -1.609375 L 4.796875 0 L 4.109375 0 L 3.5625 -1.703125 C 3.488281 -1.910156 3.410156 -2.070312 3.328125 -2.1875 C 3.242188 -2.300781 3.132812 -2.378906 3 -2.421875 C 2.863281 -2.472656 2.691406 -2.5 2.484375 -2.5 L 1.5 -2.5 L 1.5 0 Z M 2.859375 -3.0625 C 3.203125 -3.0625 3.457031 -3.140625 3.625 -3.296875 C 3.800781 -3.460938 3.890625 -3.710938 3.890625 -4.046875 C 3.890625 -4.378906 3.800781 -4.625 3.625 -4.78125 C 3.457031 -4.945312 3.203125 -5.03125 2.859375 -5.03125 L 1.5 -5.03125 L 1.5 -3.0625 Z M 2.859375 -3.0625 "/></g></g></g><g fill="#ffffff" fill-opacity="1"><g transform="translate(274.034663, 229.048917)"><g><path d="M 1.5 0 L 0.84375 0 L 0.84375 -5.59375 L 1.5 -5.59375 Z M 1.5 0 "/></g></g></g><g fill="#ffffff" fill-opacity="1"><g transform="translate(279.217349, 229.048917)"><g><path d="M 3.046875 0 L 2.171875 0 L 0.234375 -5.59375 L 0.9375 -5.59375 L 2.578125 -0.828125 L 2.671875 -0.828125 L 4.296875 -5.59375 L 4.984375 -5.59375 Z M 3.046875 0 "/></g></g></g><g fill="#ffffff" fill-opacity="1"><g transform="translate(287.269593, 229.048917)"><g><path d="M 1.5 -2.640625 L 1.5 -0.546875 L 4.34375 -0.546875 L 4.34375 0 L 0.84375 0 L 0.84375 -5.59375 L 4.28125 -5.59375 L 4.28125 -5.046875 L 1.5 -5.046875 L 1.5 -3.171875 L 3.953125 -3.171875 L 3.953125 -2.640625 Z M 1.5 -2.640625 "/></g></g></g></svg>